<svg width="114" height="14" fill="none" xmlns="http://www.w3.org/2000/svg"><path d="M1.864 13.392v-6.68l4.953 6.68h2.365l-5.16-6.751L8.75.608H6.455L1.864 6.677V.607H0v12.785h1.864Zm16.914-7.29c0-1.813-.241-3.232-1.19-4.237C16.74.985 15.62.5 14.341.5c-1.26 0-2.381.485-3.227 1.365-1.036 1.077-1.191 2.442-1.191 4.542v.844c0 1.904.017 3.645 1.19 4.884.847.898 1.951 1.365 3.228 1.365 1.295 0 2.4-.467 3.245-1.365 1.174-1.256 1.191-2.855 1.191-4.955V6.102Zm-1.881.772c0 2.173 0 3.304-.725 4.094-.466.52-1.104.79-1.83.79-.707 0-1.329-.27-1.829-.79-.656-.682-.708-1.885-.708-3.196V6.677c0-1.634.018-2.891.708-3.645a2.468 2.468 0 0 1 1.83-.79c.707 0 1.346.27 1.829.79.69.754.725 1.903.725 3.842ZM30.6 13.392V.608h-1.709l-5.488 9.265V.608H21.54v12.784h1.691l5.506-9.283v9.283h1.864Zm11.927 0V.608h-1.882v5.476h-4.97V.608h-1.864v12.784h1.863V7.808h4.971v5.584h1.882Zm11.598-7.29c0-1.813-.241-3.232-1.19-4.237C52.088.985 50.967.5 49.69.5c-1.26 0-2.381.485-3.227 1.365-1.036 1.077-1.191 2.442-1.191 4.542v.844c0 1.904.017 3.645 1.19 4.884.847.898 1.951 1.365 3.228 1.365 1.295 0 2.4-.467 3.245-1.365 1.174-1.256 1.191-2.855 1.191-4.955V6.102Zm-1.881.772c0 2.173 0 3.304-.725 4.094-.466.52-1.105.79-1.83.79-.707 0-1.328-.27-1.83-.79-.655-.682-.707-1.885-.707-3.196V6.677c0-1.634.017-2.891.708-3.645a2.468 2.468 0 0 1 1.83-.79c.707 0 1.346.27 1.829.79.69.754.725 1.903.725 3.842Zm11.84-4.524V.608h-8.63V2.35h3.383v11.042h1.864V2.35h3.383Zm11.184 11.042V.608H73.56l-5.488 9.265V.608h-1.864v12.784h1.691l5.506-9.283v9.283h1.864Zm16.069 0V.608h-1.881v5.476h-4.971V.608h-1.864v12.784h1.864V7.808h4.97v5.584h1.882Zm12.22 0L99.07.608H97.57l-4.505 12.784h1.968l.862-2.567h4.851l.863 2.567h1.95Zm-3.314-4.22H96.43L98.363 3.5l1.881 5.674Zm13.756.63c0-1.455-.639-2.371-1.847-2.964 1.087-.556 1.657-1.49 1.657-2.783 0-2.082-1.467-3.447-3.711-3.447h-4.781v12.784h4.971c2.296 0 3.711-1.382 3.711-3.59Zm-2.054-5.621c0 1.15-.759 1.831-2.002 1.831h-2.762V2.35h2.762c1.243 0 2.002.682 2.002 1.83Zm.173 5.512c0 1.204-.777 1.957-2.02 1.957h-2.917V7.754h2.917c1.243 0 2.02.754 2.02 1.94Z" fill="#ED2E38"/></svg>