<svg width="155" height="31" fill="none" xmlns="http://www.w3.org/2000/svg"><path d="M2.533 16.892V8.14l6.73 8.752h3.214L5.464 8.046 11.89.141H8.771L2.533 8.093V.141H0v16.75h2.533ZM25.516 7.34c0-2.376-.328-4.234-1.618-5.552C22.748.635 21.224 0 19.488 0c-1.711 0-3.236.635-4.385 1.788-1.407 1.412-1.618 3.2-1.618 5.952v1.106c0 2.494.023 4.776 1.618 6.4 1.15 1.176 2.65 1.787 4.386 1.787 1.759 0 3.26-.611 4.409-1.788 1.595-1.647 1.618-3.74 1.618-6.493V7.34ZM22.96 8.352c0 2.847 0 4.329-.985 5.364-.634.682-1.501 1.035-2.486 1.035a3.413 3.413 0 0 1-2.486-1.035c-.892-.894-.962-2.47-.962-4.188V8.093c0-2.14.024-3.788.962-4.776.656-.682 1.547-1.035 2.486-1.035.961 0 1.829.353 2.486 1.035.938.988.985 2.494.985 5.035Zm18.621 8.54V.142h-2.322L31.801 12.28V.14H29.27v16.75h2.298L39.048 4.73v12.163h2.533Zm16.206 0V.142H55.23v7.175h-6.754V.14h-2.533v16.75h2.533V9.576h6.754v7.317h2.557Zm15.76-9.552c0-2.376-.328-4.234-1.618-5.552C70.779.635 69.255 0 67.519 0c-1.711 0-3.236.635-4.385 1.788-1.407 1.412-1.618 3.2-1.618 5.952v1.106c0 2.494.023 4.776 1.618 6.4 1.15 1.176 2.65 1.787 4.386 1.787 1.758 0 3.26-.611 4.409-1.788 1.594-1.647 1.618-3.74 1.618-6.493V7.34Zm-2.556 1.012c0 2.847 0 4.329-.985 5.364-.634.682-1.501 1.035-2.486 1.035a3.413 3.413 0 0 1-2.486-1.035c-.892-.894-.962-2.47-.962-4.188V8.093c0-2.14.024-3.788.962-4.776.656-.682 1.547-1.035 2.486-1.035.961 0 1.829.353 2.486 1.035.938.988.985 2.494.985 5.035Zm16.088-5.929V.141H75.353v2.282h4.597v14.469h2.533V2.423h4.596Zm15.197 14.469V.142h-2.322L92.498 12.28V.14h-2.533v16.75h2.298L99.743 4.73v12.163h2.533Zm21.835 0V.142h-2.557v7.175H114.8V.14h-2.533v16.75h2.533V9.576h6.754v7.317h2.557Zm16.604 0L134.618.142h-2.041l-6.121 16.75h2.674l1.172-3.364h6.591l1.172 3.364h2.65Zm-4.502-5.529h-5.184l2.627-7.434 2.557 7.434Zm18.691.824c0-1.906-.868-3.106-2.509-3.882 1.477-.73 2.251-1.953 2.251-3.647 0-2.729-1.993-4.517-5.042-4.517h-6.496v16.751h6.754c3.119 0 5.042-1.811 5.042-4.705Zm-2.791-7.364c0 1.506-1.032 2.4-2.72 2.4h-3.753v-4.8h3.753c1.688 0 2.72.894 2.72 2.4Zm.235 7.223c0 1.576-1.056 2.564-2.744 2.564h-3.964V9.505h3.964c1.688 0 2.744.988 2.744 2.54ZM11.969 23.311h.652v2.738h3.319v-2.738h.653v6.53h-.653v-3.155H12.62v3.156h-.652v-6.53Zm9.307-.163c.985 0 1.81.33 2.473.99.664.66.996 1.471.996 2.435 0 .957-.33 1.768-.993 2.433-.663.666-1.47 1-2.424 1-.963 0-1.778-.332-2.441-.995a3.275 3.275 0 0 1-.996-2.405c0-.628.15-1.209.453-1.745a3.307 3.307 0 0 1 1.238-1.259 3.313 3.313 0 0 1 1.694-.454Zm.028.636c-.48 0-.937.126-1.369.378-.43.251-.767.59-1.01 1.015a2.846 2.846 0 0 0-.363 1.427c0 .774.267 1.43.804 1.963a2.647 2.647 0 0 0 1.938.802c.507 0 .974-.123 1.403-.369a2.63 2.63 0 0 0 1.006-1.008 2.84 2.84 0 0 0 .361-1.42c0-.518-.12-.987-.361-1.405a2.702 2.702 0 0 0-1.017-1.005 2.746 2.746 0 0 0-1.392-.378Zm4.766-.473h1.283c.517 0 .914.061 1.19.184.279.123.498.312.658.567.162.253.242.537.242.846 0 .29-.071.554-.212.792-.14.239-.347.43-.619.58.338.115.598.25.78.406.183.154.323.342.424.564.102.22.153.459.153.717 0 .524-.19.968-.573 1.33-.382.363-.894.545-1.538.545H26.07v-6.53Zm.635.637v2.092h.373c.453 0 .787-.043 1-.126a1.08 1.08 0 0 0 .694-1.006c0-.299-.104-.534-.313-.705-.21-.17-.542-.255-.999-.255h-.755Zm0 2.747v2.51h.809c.475 0 .824-.047 1.047-.14.222-.093.4-.24.534-.439.135-.199.203-.414.203-.644 0-.291-.095-.546-.284-.762-.19-.216-.45-.364-.78-.445-.222-.053-.61-.08-1.16-.08h-.37Zm7.657-3.547c.985 0 1.81.33 2.473.99.664.66.996 1.472.996 2.436 0 .956-.33 1.767-.993 2.433-.663.665-1.47.999-2.424.999-.964 0-1.778-.332-2.442-.995a3.275 3.275 0 0 1-.995-2.405c0-.628.151-1.209.453-1.745a3.306 3.306 0 0 1 1.238-1.258 3.313 3.313 0 0 1 1.694-.455Zm.028.636c-.48 0-.937.126-1.369.378-.43.252-.767.59-1.01 1.015a2.846 2.846 0 0 0-.363 1.427c0 .774.267 1.43.804 1.963a2.647 2.647 0 0 0 1.938.802c.507 0 .974-.123 1.403-.368a2.63 2.63 0 0 0 1.006-1.009 2.84 2.84 0 0 0 .361-1.42 2.77 2.77 0 0 0-.361-1.405 2.702 2.702 0 0 0-1.017-1.005 2.745 2.745 0 0 0-1.392-.378Zm4.757-.473h3.727v.637H39.8v2.047h3.046v.636H39.8v2.574h3.046v.637h-3.699v-6.53Zm7.353 0h4.624v6.53h-.653v-5.91h-3.318v5.91h-.652v-6.53Zm6.203 0h1.298c.744 0 1.247.032 1.507.098.372.092.675.28.911.567.238.284.355.644.355 1.076 0 .435-.114.793-.346 1.076-.23.282-.547.471-.95.57-.296.071-.848.106-1.656.106h-.466v3.038h-.653v-6.53Zm.653.637v2.22l1.103.013c.446 0 .772-.04.98-.123.206-.082.37-.212.487-.394a1.1 1.1 0 0 0 .177-.61c0-.219-.058-.42-.177-.603a.982.982 0 0 0-.468-.388c-.193-.077-.509-.115-.95-.115h-1.152Zm7.817-.8c.985 0 1.81.33 2.474.99.663.66.995 1.472.995 2.436 0 .956-.33 1.767-.992 2.433-.664.665-1.47.999-2.424.999-.964 0-1.778-.332-2.442-.995a3.275 3.275 0 0 1-.996-2.405c0-.628.152-1.209.454-1.745a3.305 3.305 0 0 1 1.237-1.258 3.312 3.312 0 0 1 1.694-.455Zm.029.637c-.48 0-.937.125-1.37.377-.43.252-.767.59-1.01 1.016a2.846 2.846 0 0 0-.363 1.426c0 .775.268 1.43.804 1.963a2.647 2.647 0 0 0 1.939.802c.506 0 .973-.123 1.402-.368a2.63 2.63 0 0 0 1.007-1.008 2.84 2.84 0 0 0 .36-1.42c0-.52-.12-.987-.36-1.406a2.702 2.702 0 0 0-1.017-1.005 2.746 2.746 0 0 0-1.392-.377Zm10.813.732-.513.395a2.803 2.803 0 0 0-1.02-.841 2.966 2.966 0 0 0-1.308-.287 2.88 2.88 0 0 0-1.441.377c-.443.25-.785.586-1.028 1.008a2.8 2.8 0 0 0-.365 1.423c0 .798.272 1.463.815 1.995.545.533 1.23.8 2.06.8.911 0 1.673-.358 2.286-1.073l.514.391c-.325.414-.73.735-1.215.961a3.805 3.805 0 0 1-1.626.34c-1.139 0-2.038-.38-2.696-1.142-.55-.64-.827-1.417-.827-2.325 0-.955.334-1.76 1.001-2.412.67-.653 1.507-.979 2.513-.979.608 0 1.156.12 1.646.36s.891.577 1.204 1.009Zm.662-.569v-.636h3.563v.636h-1.45v5.894h-.662v-5.894h-1.45Zm4.505-.636h1.298c.743 0 1.246.031 1.506.097.372.092.676.28.912.567.237.285.355.644.355 1.076 0 .435-.115.793-.346 1.076-.23.282-.547.472-.95.57-.297.071-.849.106-1.657.106h-.465v3.038h-.653v-6.53Zm.653.636v2.22l1.103.013c.445 0 .772-.04.979-.123.207-.082.37-.212.488-.394a1.1 1.1 0 0 0 .177-.61c0-.219-.059-.42-.177-.602a.982.982 0 0 0-.468-.389c-.194-.077-.51-.115-.95-.115h-1.152Zm7.378-.636 3.038 6.53h-.7l-1.017-2.146h-2.821l-1.011 2.146h-.725l3.073-6.53h.163Zm-.081 1.37-1.12 2.377h2.235l-1.115-2.377Zm4.113-1.37h.653v2.737h3.318v-2.737h.653v6.53h-.653v-3.156h-3.318v3.156h-.653v-6.53Zm12.268 1.205-.513.395a2.806 2.806 0 0 0-1.02-.841 2.966 2.966 0 0 0-1.307-.287c-.519 0-1 .127-1.442.377-.443.25-.784.586-1.028 1.008a2.801 2.801 0 0 0-.365 1.423c0 .798.272 1.463.816 1.995.544.533 1.23.8 2.06.8.91 0 1.672-.358 2.286-1.073l.513.391a3.27 3.27 0 0 1-1.215.961 3.801 3.801 0 0 1-1.625.34c-1.14 0-2.039-.38-2.696-1.142-.552-.64-.828-1.417-.828-2.325 0-.955.334-1.76 1.002-2.412.669-.653 1.506-.979 2.513-.979.607 0 1.156.12 1.645.36.49.24.892.577 1.204 1.009Zm.662-.569v-.636h3.564v.636h-1.451v5.894h-.662v-5.894h-1.451Zm4.523-.636h1.283c.517 0 .914.06 1.191.183.278.123.497.312.657.567.162.253.242.537.242.846 0 .29-.071.555-.211.793-.141.238-.348.43-.62.579.338.115.598.25.78.406.183.155.323.343.424.564.102.22.153.459.153.717 0 .524-.191.969-.573 1.33-.382.363-.894.545-1.538.545h-1.788v-6.53Zm.635.636v2.092h.373c.454 0 .787-.042 1.001-.126a1.08 1.08 0 0 0 .693-1.006c0-.299-.104-.534-.313-.705-.21-.17-.542-.255-.998-.255h-.756Zm0 2.747v2.51h.808c.476 0 .825-.047 1.047-.14.223-.093.401-.24.536-.439.134-.198.202-.414.202-.644 0-.291-.095-.546-.284-.762-.189-.216-.449-.364-.78-.444-.222-.053-.609-.08-1.16-.08h-.369Zm7.657-3.547c.985 0 1.81.33 2.473.99.664.66.996 1.472.996 2.436 0 .956-.331 1.767-.993 2.433-.663.665-1.47.999-2.423.999-.964 0-1.779-.332-2.442-.995a3.272 3.272 0 0 1-.996-2.405c0-.628.151-1.208.453-1.745a3.304 3.304 0 0 1 1.238-1.258 3.31 3.31 0 0 1 1.694-.455Zm.028.637c-.48 0-.937.126-1.369.377-.43.252-.767.59-1.011 1.016a2.852 2.852 0 0 0-.362 1.426c0 .775.267 1.43.804 1.963a2.645 2.645 0 0 0 1.938.802c.507 0 .974-.123 1.403-.368.43-.246.766-.582 1.006-1.008.24-.426.361-.9.361-1.42 0-.519-.121-.987-.361-1.406a2.698 2.698 0 0 0-1.017-1.005 2.746 2.746 0 0 0-1.392-.377Zm11.03 3.025v3.032h-.653V26.81l-.199-.181-2.66 3.213h-.863l3.101-3.62-2.856-2.91h.873l2.604 2.76v-2.76h.653v2.76l2.62-2.76h.866l-2.856 2.91 3.101 3.62h-.863l-2.669-3.213-.199.181Zm9.837 3.032h-.68v-5.017l-4.296 5.017h-.146v-6.53h.652v5.091l4.324-5.091h.146v6.53Zm1.709-5.895c.458-.532 1.023-.799 1.697-.799.535 0 .978.155 1.327.464.349.308.523.708.523 1.2 0 .693-.327 1.19-.979 1.492.858.267 1.287.843 1.287 1.731 0 .591-.192 1.069-.576 1.43-.385.36-.911.54-1.579.54-.467 0-.873-.096-1.216-.29-.345-.194-.67-.534-.973-1.019l.503-.299c.302.445.585.73.849.855.263.126.537.19.821.19.414 0 .766-.12 1.056-.36.29-.239.435-.59.435-1.056 0-.245-.05-.46-.148-.641-.1-.182-.239-.33-.419-.441a1.511 1.511 0 0 0-.515-.214 5.12 5.12 0 0 0-.802-.044h-.11v-.573h.217c.967 0 1.451-.392 1.451-1.176 0-.364-.11-.652-.331-.867a1.155 1.155 0 0 0-.837-.322c-.438 0-.85.199-1.235.596l-.446-.397Zm5.124-.635h.653v2.737h3.318v-2.737h.653v6.53h-.653v-3.156h-3.318v3.156h-.653v-6.53Zm11.335 6.53h-.68v-5.017l-4.296 5.017h-.147v-6.53h.653v5.092l4.324-5.092h.146v6.53Z" fill="#ED2E38"/></svg>